<svg class="kajabi-logo" version="1.1" xmlns="http://www.w3.org/2000/svg" xmlns:xlink="http://www.w3.org/1999/xlink" x="0px" y="0px"
	 viewBox="0 0 150 26" enable-background="new 0 0 150 26" xml:space="preserve">
	<path class="svg-letter" fill="#30373E" d="M48,22.8l-6-7.9l-1.5,1.8v6.1h-4.2V3h4.2v8.8l7-8.8h5.2l-7.8,9.3l8.4,10.5H48z"/>
	<path class="svg-letter" fill="#30373E" d="M72,22.8l-1.2-3.5h-8.5L61,22.8h-4.8L63.9,3h5.3l7.6,19.8H72z M66.5,7.2l-3.1,8.5h6.2L66.5,7.2z"/>
	<path class="svg-letter" fill="#30373E" d="M79.8,21.2l1.8-3.2c0.8,0.7,1.8,1.4,3.1,1.4c1.9,0,3-1.2,3-3.2l0-13.2H92v13.3c0,4.7-2.9,6.8-7,6.8
		C83.1,23.1,81.2,22.6,79.8,21.2z"/>
	<path class="svg-letter" fill="#30373E" d="M112.5,22.8l-1.2-3.2h-8.5l-1.2,3.2h-4.8L104.4,3h5.3l7.6,19.8H112.5z M107,7.2l-3.1,8.3h6.2L107,7.2z"/>
	<path class="svg-letter" fill="#30373E" d="M122,22.8V3h10.5c3.8,0,5.7,2.4,5.7,5c0,2.5-1.5,4.1-3.4,4.5c2.1,0.3,3.8,2.4,3.8,4.9c0,3-2,5.3-5.7,5.3
		H122z M133.9,8.8c0-1.2-0.9-2-2.3-2h-5.3V11h5.3C133,11,133.9,10,133.9,8.8z M134.3,16.8c0-1.2-0.9-2.3-2.5-2.3h-5.5V19h5.5
		C133.3,19,134.3,18.2,134.3,16.8z"/>
	<path class="svg-letter" fill="#30373E" d="M145.8,22.8V3h4.2v19.8H145.8z"/>
	<polygon class="svg-symbol" fill="#2E91FC" points="0,26 0,0 26,0 			"/>
	<polygon class="svg-symbol" fill="#2E91FC" points="5.2,26 15.6,15.6 26,26 		"/>
</svg>
